<?xml version="1.0" encoding="utf-8"?><svg xmlns="http://www.w3.org/2000/svg" xmlns:xlink="http://www.w3.org/1999/xlink" width="200px" height="200px" viewBox="0 0 100 100" preserveAspectRatio="xMidYMid" style="margin-right:-2px;display:block;background-repeat-y:initial;background-repeat-x:initial;animation-play-state:paused" ><g transform="rotate(0 50 50)" style="animation-play-state:paused" ><rect x="47" y="24" rx="3" ry="6" width="6" height="12" fill="#311b92" opacity="0.08333329856395721" style="opacity:0.08333329856395721;animation-play-state:paused" ></rect></g>
<g transform="rotate(30 50 50)" style="animation-play-state:paused" ><rect x="47" y="24" rx="3" ry="6" width="6" height="12" fill="#311b92" opacity="0.16666699945926666" style="opacity:0.16666699945926666;animation-play-state:paused" ></rect></g>
<g transform="rotate(60 50 50)" style="animation-play-state:paused" ><rect x="47" y="24" rx="3" ry="6" width="6" height="12" fill="#311b92" opacity="0.25" style="opacity:0.25;animation-play-state:paused" ></rect></g>
<g transform="rotate(90 50 50)" style="animation-play-state:paused" ><rect x="47" y="24" rx="3" ry="6" width="6" height="12" fill="#311b92" opacity="0.33333298563957214" style="opacity:0.33333298563957214;animation-play-state:paused" ></rect></g>
<g transform="rotate(120 50 50)" style="animation-play-state:paused" ><rect x="47" y="24" rx="3" ry="6" width="6" height="12" fill="#311b92" opacity="0.41666701436042786" style="opacity:0.41666701436042786;animation-play-state:paused" ></rect></g>
<g transform="rotate(150 50 50)" style="animation-play-state:paused" ><rect x="47" y="24" rx="3" ry="6" width="6" height="12" fill="#311b92" opacity="0.5" style="opacity:0.5;animation-play-state:paused" ></rect></g>
<g transform="rotate(180 50 50)" style="animation-play-state:paused" ><rect x="47" y="24" rx="3" ry="6" width="6" height="12" fill="#311b92" opacity="0.5833330154418945" style="opacity:0.5833330154418945;animation-play-state:paused" ></rect></g>
<g transform="rotate(210 50 50)" style="animation-play-state:paused" ><rect x="47" y="24" rx="3" ry="6" width="6" height="12" fill="#311b92" opacity="0.6666669845581055" style="opacity:0.6666669845581055;animation-play-state:paused" ></rect></g>
<g transform="rotate(240 50 50)" style="animation-play-state:paused" ><rect x="47" y="24" rx="3" ry="6" width="6" height="12" fill="#311b92" opacity="0.75" style="opacity:0.75;animation-play-state:paused" ></rect></g>
<g transform="rotate(270 50 50)" style="animation-play-state:paused" ><rect x="47" y="24" rx="3" ry="6" width="6" height="12" fill="#311b92" opacity="0.8333330154418945" style="opacity:0.8333330154418945;animation-play-state:paused" ></rect></g>
<g transform="rotate(300 50 50)" style="animation-play-state:paused" ><rect x="47" y="24" rx="3" ry="6" width="6" height="12" fill="#311b92" opacity="0.9166669845581055" style="opacity:0.9166669845581055;animation-play-state:paused" ></rect></g>
<g transform="rotate(330 50 50)" style="animation-play-state:paused" ><rect x="47" y="24" rx="3" ry="6" width="6" height="12" fill="#311b92" opacity="1" style="animation-play-state:paused" ></rect></g><!-- generated by https://loading.io/ --></svg>